<svg xmlns="http://www.w3.org/2000/svg" width="24" height="24" viewBox="0 0 24 24">
    <g transform="translate(0 .466)">
        <circle cx="12" cy="12" r="12" fill="#26a17b" transform="translate(0 -.466)"/>
        <path fill="#fff" fill-rule="evenodd" d="M15.706 15.891c-.089.007-.548.035-1.572.035-.817 0-1.393-.025-1.6-.035-3.146-.144-5.5-.716-5.5-1.4s2.349-1.254 5.5-1.4v2.231c.206.015.795.051 1.609.051.977 0 1.466-.042 1.558-.051v-2.229c3.14.146 5.483.717 5.483 1.4s-2.343 1.253-5.483 1.4m0-3.03v-2h4.381V7.819H8.157v3.045h4.381v2c-3.561.17-6.239.906-6.239 1.787s2.678 1.616 6.239 1.787v6.4h3.167v-6.4c3.555-.17 6.227-.906 6.227-1.786s-2.671-1.615-6.227-1.787" transform="translate(-2.237 -3.393)"/>
    </g>
</svg>
