<svg xmlns="http://www.w3.org/2000/svg" id="prefix__btc" width="36" height="36" viewBox="0 0 36 36">
    <circle id="prefix__Ellipse_210" cx="18" cy="18" r="18" data-name="Ellipse 210" style="fill:#f7931a"/>
    <path id="prefix__Path_2599" d="M25.045 15.01c.353-2.355-1.441-3.621-3.893-4.466l.8-3.191-1.941-.483-.775 3.106c-.51-.128-1.034-.247-1.556-.366l.781-3.127L16.514 6l-.8 3.189c-.422-.1-.838-.191-1.24-.292v-.01L11.8 8.219l-.517 2.074s1.441.33 1.411.351a1.034 1.034 0 0 1 .9 1.13l-.894 3.634a1.727 1.727 0 0 1 .2.064l-.206-.051-1.27 5.091a.708.708 0 0 1-.891.461c.02.028-1.411-.352-1.411-.352l-.964 2.222 2.528.63c.47.118.93.242 1.383.357l-.8 3.227 1.94.483.8-3.191c.53.143 1.045.275 1.548.4l-.793 3.177 1.941.483.8-3.22c3.312.627 5.8.374 6.85-2.621.845-2.411-.042-3.8-1.784-4.71a3.1 3.1 0 0 0 2.474-2.848zm-4.438 6.222c-.6 2.412-4.66 1.108-5.977.781l1.07-4.275c1.314.329 5.535.98 4.907 3.494zm.6-6.257c-.547 2.194-3.926 1.079-5.022.806l.966-3.876c1.097.273 4.628.782 4.057 3.07z" data-name="Path 2599" transform="translate(1.007 .741)" style="fill:#fff"/>
</svg>
